# xmcd
#
# Track frame offsets:
#	150
#	23320
#	44199
#	76359
#	97257
#	120372
#	139422
#	166729
#	188760
#	216580
#	239868
#	267104
#	301318
#
# Disc length: 4380 seconds
#
# Revision: 1
# Processed by: cddbd v1.4PL0 Copyright (c) Steve Scherf et al.
# Submitted via: EasyCDDAExtractor 6.2.0.3
#
DISCID=b9111a0d
DTITLE=Friderika - Gospel
DYEAR=2003
DGENRE=Gospel
TTITLE0=Nagy az Úr
TTITLE1=Jézus szeretlek, követlek
TTITLE2=Egyre csak mélyül
TTITLE3=Ne félj
TTITLE4=Jézus, kedves Megváltóm
TTITLE5=Szívemben szól
TTITLE6=Szent szerelmed
TTITLE7=Jézus megtartom Igéd
TTITLE8=Uram, Te vagy életem
TTITLE9=Mond, hol van
TTITLE10=Neked Uram, szól énekem
TTITLE11=Szent vagy én Uram
TTITLE12=Mily szerelmesek hajlékaid
EXTD=Közremûködtek:\nZongora: Németh Judit\nBasszusgitár: Botos Lajos, Gothár 
EXTD=Ferenc\nGitár: Abaházi Zoltán, Fejes Zoltán\nTrombita: Borbély József\nKü
EXTD=rt: Kocsis Zsolt\n\nÉnek: Friderika\nBalogh Ferenc, Botos Lajos, Kötõ Gab
EXTD=riella, Németh Alexandra\nVokál: Czerovszki Henriett, Varga Szabolcs\nSzá
EXTD=mítógép programozás és dobhangok készítése: Varga Szabolcs\nZenei rendezõ
EXTD=: Borbély József\nHangmérnök: Borbély József, Kassai Róbert, Varga Szabol
EXTD=cs\n\nA Dalok a Hit Studióban készültek 2003-ban\nProducer: Németh Sándor
EXTD=\n\nBorító: Reklám és Arculat Kft.\nFotó: Hack Róbert
EXTT0=
EXTT1=
EXTT2=
EXTT3=
EXTT4=
EXTT5=
EXTT6=
EXTT7=
EXTT8=
EXTT9=
EXTT10=
EXTT11=
EXTT12=
PLAYORDER=
